<?xml version="1.0" encoding="UTF-8"?>
<mxfile host="app.diagrams.net">
  <diagram name="Page-1" id="test">
    <mxGraphModel>
      <root>
        <mxCell id="0" />
        <mxCell id="1" parent="0" />
        
        <!-- Element A -->
        <object placeholders="1" c4Name="Element A" c4Type="Container" id="element-a">
          <mxCell style="rounded=1;" vertex="1" parent="1">
            <mxGeometry x="580" y="500" width="240" height="120" as="geometry" />
          </mxCell>
        </object>
        
        <!-- Element B -->
        <object placeholders="1" c4Name="Element B" c4Type="Container" id="element-b">
          <mxCell style="rounded=1;" vertex="1" parent="1">
            <mxGeometry x="580" y="580" width="240" height="120" as="geometry" />
          </mxCell>
        </object>
        
        <!-- Relationship with nested mxPoint elements -->
        <object placeholders="1" c4Type="Relationship" id="rel-1">
          <mxCell style="endArrow=blockThin;html=1;" edge="1" parent="1">
            <mxGeometry width="240" relative="1" as="geometry">
              <mxPoint x="590" y="510" as="sourcePoint" />
              <mxPoint x="590" y="590" as="targetPoint" />
            </mxGeometry>
          </mxCell>
        </object>
        
      </root>
    </mxGraphModel>
  </diagram>
</mxfile>